<svg version="1.1" id="Capa_1" xmlns="http://www.w3.org/2000/svg" x="0" y="0" viewBox="0 0 715.6 1000" style="enable-background:new 0 0 715.6 1000" xml:space="preserve"><style>.st0{fill:#00529f}.st1{fill:#ee324e}.st2{fill:#fff}.st3{fill:#febe10}</style><path id="path3" class="st0" d="M595.2 232.3c2.1-3.2 3.4-6.7 3.4-10.2 0-1-.1-2-.3-3-.7-4-2.9-7.3-6-9.7 1.1-2.2 1.7-4.7 1.7-7.2 0-7-4.4-13.2-10.7-15.8 2.8-3.1 4.4-7 4.4-11.3 0-8-5.5-14.7-13.1-16.5 1.1-2.3 1.8-4.7 1.8-7.3 0-9.4-7.6-17-17-17-.5 0-1.1.2-1.6.2.4-1.4.6-2.9.6-4.4 0-9.4-7.6-17-17-17-1.7 0-3.5.4-5.1.9 0-9.3-7.6-16.9-17-16.9-2.8 0-5.5.9-7.9 2.2-2.2-6.5-8.4-11.3-15.6-11.3-5.1 0-9.8 2.4-13.1 6.4-3.1-2.7-7-4.3-11.2-4.3 0 0-.7.1-1.2.1.3-1.2.4-2.4.4-3.6 0-9.4-7.6-17-17-17-2.2 0-4.2.6-6.3 1.4 0-4.5-1.8-8.7-5-11.8-3.2-3.2-7.5-5-12-5-3 0-5.8 1-8.3 2.4-2.4-6.6-8.6-11.4-15.8-11.4-3.9 0-7.5 1.4-10.5 3.7-3.1-4.9-8.4-8-14.2-8-1.5 0-3 .3-4.5.7-2.8-3-6.2-5.3-10-6.8 0 0-.9-.3-1.7-.5v-8.8h9.9c.9 0 1.7-.7 1.7-1.7V12.1c0-.9-.7-1.7-1.7-1.7h-9.9V1.6c0-.9-.7-1.7-1.7-1.7h-12.4c-.9 0-1.7.7-1.7 1.7v8.8h-9.9c-.9 0-1.7.7-1.7 1.7v11.7c0 .9.7 1.7 1.7 1.7h9.9v8.8c-.8.3-1.7.5-1.7.5-3.8 1.5-7.2 3.8-10 6.8-1.5-.4-2.9-.7-4.5-.7-5.8 0-11.1 3.2-14.2 8-3-2.4-6.6-3.7-10.5-3.7-7.2 0-13.4 4.7-15.8 11.4-2.6-1.5-5.3-2.4-8.3-2.4-9.3 0-16.9 7.5-17 16.8-2-.8-4.1-1.4-6.3-1.4-9.4 0-17 7.6-17 17 0 1.2.2 2.4.4 3.6-.5-.1-1.2-.1-1.2-.1-4.1 0-8.1 1.6-11.2 4.3-3.2-4-7.9-6.4-13.1-6.4-7.2 0-13.5 4.8-15.8 11.5-2.5-1.3-5.1-2.2-7.9-2.2-9.3 0-16.9 7.6-17 16.9-1.7-.5-3.3-.9-5.1-.9-9.4 0-17 7.6-17 17 0 1.5.3 2.9.6 4.4-.5-.1-1.1-.2-1.6-.2-9.4 0-17 7.6-17 17 0 2.6.7 5 1.8 7.3-7.6 1.8-13.1 8.4-13.1 16.5 0 4.2 1.6 8.2 4.4 11.3-6.3 2.5-10.7 8.8-10.7 15.8 0 2.5.7 4.9 1.7 7.2-3.1 2.4-5.3 5.8-6 9.7-.2 1-.3 2-.3 3 0 3.5 1.3 7 3.4 10.2-2.3 2.3-3.5 5.3-3.5 8.7v.3c.1 6.6 4.6 13.1 8.6 16.3 7.7 6 16 6.8 23.1 2.6 6.7 4.8 15.1 6.5 23.1 4.8-.1.5-.3 1-.3 1.5 0 1.5.3 3 1 4.4 1.2 2.6 3.3 4.5 5.8 5.4 1.6.6 3.3.7 4.9.4-.2.3-.3.6-.4.9-.5 1.4-.4 2.9.3 4.4.6 1.3 1.7 2.3 3.1 2.8.4.1.7.2 1.1.2l-2.4 9.7c-.1.5.1 1 .5 1.2l9.8 5.4c-.8 1.1-1.3 2.4-1.3 3.7 0 .8.2 1.7.6 2.5 1.5 3.1 4.8 4.4 7.7 3.1 48.7-23 101.1-34.6 155.7-34.6 54.6 0 107 11.7 155.7 34.6 3 1.4 6.3.1 7.7-3.1.4-.8.6-1.7.6-2.5 0-1.4-.5-2.7-1.3-3.7l9.8-5.4c.4-.2.7-.7.5-1.2l-2.4-9.8c1.8-.2 3.4-1.2 4.2-3 .4-.8.6-1.7.6-2.5 0-.6-.1-1.2-.3-1.8l-.6-1.2c4.4.8 9-1.3 11-5.6.7-1.4 1-2.9 1-4.4 0-.5-.3-1-.3-1.5 8 1.7 16.4-.1 23.1-4.8 7.1 4.2 15.4 3.4 23.1-2.6 4.1-3.2 8.5-9.6 8.6-16.3v-.3c.7-3.6-.6-6.5-2.8-8.8zm-386.3-74.4c0 .4.1.7.1 1.1-8.3 1.8-17.7 4.3-25.3 7.3-5.4 2.1-10 4.8-13.7 7.5 8.3-17.6 22.3-30 45.3-42 .2 3.8 1.7 7.4 4.3 10.2-6.3 2.6-10.7 8.9-10.7 15.9zm136.2-57c-1.5 2.4-2.3 5.1-2.3 7.9 0 2.8.9 5.5 2.3 7.9v7.3c-27-3.9-61.6-1.3-88.6 12.7 12.9-32.3 42.8-57.8 86.3-55.3 0 2.8.9 5.5 2.3 7.8v11.7zm25.4 23.2v-7.3c1.5-2.4 2.3-5.1 2.3-7.9 0-2.8-.9-5.5-2.3-7.9V89.3c1.5-2.4 2.3-5 2.3-7.8 43.5-2.5 73.4 23.1 86.3 55.3-27-14-61.6-16.6-88.6-12.7zm161.4 42.2c-7.7-3-17.1-5.5-25.3-7.3 0-.4.1-.7.1-1.1 0-7-4.4-13.2-10.7-15.8 2.6-2.8 4.1-6.4 4.3-10.2 23 12 37 24.4 45.3 42-3.7-2.8-8.3-5.5-13.7-7.6z"/><path id="path5" class="st1" d="M550.6 249.5c-2.5.1-5-.3-7.2-1.5-4.3-2.4-6.9-6.9-6.9-11.7v-.9c1.6-1.9 2.8-4.1 3.4-6.5.4-1.4.6-2.9.6-4.3 0-3-.8-6-2.4-8.6-2.3-3.9-6-6.7-10.5-7.9-9.1-2.3-18.4 3.2-20.8 12.3 0 0-.3 1.8-.4 2.9-3.3 4.2-8.7 6-13.8 4.7-5.8-1.5-9.7-6.5-9.9-12.3 12.2 2.4 19.6-2.2 22.7-14 .6-2.5.9-4.7.9-6.8 0-6.4-3.1-11-9-14.2v-.6c0-2.4-.5-4.5-1.2-6.5 5.2-2.2 9.1-6.7 10.2-12.2 8.1 1.8 17.3 4.2 24.8 7.2 7 2.7 12.4 6.4 16.4 9.9 4.2 10.4 6.6 22.6 7.8 37.5-4.2 1.8-7.6 5.8-10 12.1-1.2 3.2-1.8 6.1-1.8 8.8 0 5 2.4 9.2 7.1 12.6z"/><path id="path7" class="st1" d="M454 208.1c-3.1 4.9-8.8 7.5-14.6 6-5.7-1.5-9.8-6.6-10-12.4 1.3-2.4 2-5.1 2-7.9 0-9.4-7.6-17.1-17-17.1s-17.1 7.7-17.1 17.1c0 1.4.3 2.8.6 4.2-1.8 5.6-6.9 9.3-12.7 9.3-5.9 0-10.9-3.9-12.6-9.5 12.3-.8 18.3-7 18.3-19.2 0-10.3-4.3-16.4-13.2-18.5-1.5-6.2-5.1-10.2-10.7-12.2 3.5-2.8 5.7-7.1 5.7-11.7 0-2.8-.9-5.5-2.3-7.9v-2.1c27.4-4 62.9-1.3 89.8 13.6 2.7 7.4 4.5 15.1 5.4 22.9-3.1 1.5-5.5 4-7.4 7.6-9.1-.2-14.7 4.6-17.3 14.7-.6 2.5-.9 4.7-.9 6.8 0 8 4.7 13.3 14 16.3z"/><path id="path9" class="st1" d="M348.5 148c-5.6 2-9.3 6-10.7 12.2-8.8 2.1-13.2 8.1-13.2 18.5 0 12.2 6.1 18.4 18.4 19.2-1.7 5.5-6.6 9.5-12.6 9.5-5.8 0-11-3.8-12.7-9.3.3-1.4.6-2.7.6-4.2 0-4.6-1.8-8.8-5-12.1-3.2-3.2-7.5-5-12.1-5-9.4 0-17.1 7.7-17.1 17.1 0 2.7.7 5.4 2 7.9-.2 5.9-4.3 11-10 12.4-5.8 1.5-11.5-1.1-14.6-6 9.3-3 14-8.4 14-16.4 0-2.1-.3-4.4-.9-6.8-2.6-10-8.3-14.8-17.3-14.7-1.8-3.5-4.3-6-7.4-7.6.9-7.8 2.7-15.5 5.4-22.9 26.9-14.9 62.4-17.6 89.8-13.6v2.1c-1.5 2.4-2.3 5.1-2.3 7.9-.1 4.7 2.1 9 5.7 11.8z"/><path id="path11" class="st1" d="M218.3 180.4c-5.9 3.2-9 7.8-9 14.2 0 2.1.3 4.4 1 6.8 3 11.8 10.5 16.4 22.7 14-.3 5.8-4.2 10.8-9.9 12.3-5.2 1.3-10.5-.5-13.8-4.7-.1-.9-.4-2.8-.4-2.8-2.4-9.1-11.7-14.6-20.8-12.3-4.4 1.1-8.1 3.9-10.4 7.8-1.6 2.7-2.4 5.6-2.4 8.6 0 1.4.2 2.9.5 4.3.6 2.4 1.8 4.6 3.4 6.5v.9c0 4.9-2.6 9.4-6.9 11.8-2.2 1.2-4.7 1.7-7.2 1.5 4.7-3.4 7.1-7.6 7.1-12.8 0-2.7-.6-5.6-1.8-8.8-2.4-6.3-5.8-10.3-10-12.1 1.2-14.9 3.6-27.1 7.8-37.5 4-3.4 9.4-7.1 16.4-9.9 7.5-2.9 16.7-5.4 24.8-7.2 1.1 5.4 5 10 10.2 12.2-.7 2-1.2 4.1-1.2 6.5-.1.4-.1.6-.1.7z"/><path id="path13" class="st1" d="M504.6 243.1c3.4-.9 6.6-2.4 9.6-4.3 1.5 1 3.2 1.8 5 2.3 0 0 .5.1 1.1.2.8 3.4 2.1 6.7 4 9.7-6.6-2.9-13.1-5.5-19.7-7.9z"/><path id="path15" class="st1" d="M357.8 217s-5.1.1-9.7.2c4.4-3.4 7.8-7.9 9.7-13.1 1.9 5.2 5.3 9.7 9.7 13.1-4.6-.1-9.7-.2-9.7-.2z"/><path id="path17" class="st1" d="M191.4 250.9c1.9-3 3.2-6.3 4-9.7.5-.1 1.1-.2 1.1-.2 1.8-.5 3.4-1.3 5-2.3 2.9 2 6.1 3.4 9.6 4.3-6.7 2.5-13.3 5.1-19.7 7.9z"/><path id="path19" class="st1" d="M242.9 232.8c3.3-4.3 5.3-9.5 5.8-15 3.1 4.6 7.5 8.1 12.6 10.3-6.2 1.4-12.4 3-18.4 4.7z"/><path id="path21" class="st1" d="M294 221.8c3.3-3.1 5.8-6.9 7.5-11 1.2 0 2.4-.3 3.5-.5 2.6 3.6 6.1 6.7 10.1 8.9-7.1.7-14.1 1.5-21.1 2.6z"/><path id="path23" class="st1" d="M400.6 219.2c4-2.2 7.4-5.2 10.1-8.9 1.1.3 2.3.5 3.5.5 1.7 4.1 4.2 7.9 7.5 11-7.1-1-14.1-1.9-21.1-2.6z"/><path id="path25" class="st1" d="M454.3 228c5.1-2.2 9.4-5.7 12.6-10.3.6 5.4 2.5 10.6 5.8 15-6-1.6-12.2-3.2-18.4-4.7z"/><path id="path27" class="st2" d="M326.3 57.9c0-4.2 3.4-7.5 7.6-7.5 4.2 0 7.5 3.4 7.5 7.5s-3.4 7.5-7.5 7.5c-4.3 0-7.6-3.4-7.6-7.5z"/><path id="path29" class="st2" d="M350.2 81.4c0-4.2 3.4-7.5 7.5-7.5 4.2 0 7.5 3.4 7.5 7.5 0 4.2-3.4 7.5-7.5 7.5s-7.5-3.4-7.5-7.5z"/><path id="path31" class="st2" d="M350.2 108.8c0-4.2 3.4-7.5 7.5-7.5 4.2 0 7.5 3.4 7.5 7.5 0 4.2-3.4 7.6-7.5 7.6s-7.5-3.4-7.5-7.6z"/><path id="path33" class="st2" d="M350.2 136.3c0-4.2 3.4-7.5 7.5-7.5 4.2 0 7.5 3.4 7.5 7.5 0 4.2-3.4 7.5-7.5 7.5s-7.5-3.4-7.5-7.5z"/><path id="path35" class="st2" d="M301.6 62.2c0-2 .8-3.9 2.2-5.3 1.4-1.4 3.3-2.2 5.3-2.2 4.2 0 7.5 3.4 7.5 7.5 0 4.2-3.4 7.5-7.5 7.5-4.2 0-7.5-3.4-7.5-7.5z"/><path id="path37" class="st2" d="M277.5 71.1c0-4.2 3.4-7.5 7.5-7.5 4.2 0 7.5 3.4 7.5 7.5 0 4.2-3.4 7.5-7.5 7.5-4.2.1-7.5-3.3-7.5-7.5z"/><path id="path39" class="st2" d="M254.2 86.6c0-4.2 3.4-7.5 7.5-7.5 2 0 3.9.8 5.3 2.2 1.4 1.4 2.2 3.3 2.2 5.3 0 4.2-3.4 7.5-7.5 7.5s-7.5-3.4-7.5-7.5z"/><path id="path41" class="st2" d="M236.5 107c0-4.2 3.4-7.5 7.5-7.5 4.2 0 7.5 3.4 7.5 7.5 0 4.2-3.4 7.5-7.5 7.5s-7.5-3.3-7.5-7.5z"/><path id="path43" class="st2" d="M212.3 105c0-4.2 3.4-7.5 7.6-7.5 2 0 3.9.8 5.3 2.2 1.4 1.4 2.2 3.3 2.2 5.3 0 4.2-3.4 7.6-7.5 7.6-4.2-.1-7.6-3.5-7.6-7.6z"/><path id="path45" class="st2" d="M188.6 114.3c0-4.2 3.4-7.5 7.6-7.5 4.2 0 7.5 3.4 7.5 7.5 0 4.2-3.4 7.5-7.5 7.5-4.3 0-7.6-3.4-7.6-7.5z"/><path id="path47" class="st2" d="M166.5 130.3c0-4.2 3.4-7.5 7.6-7.5 4.2 0 7.5 3.4 7.5 7.5 0 4.2-3.4 7.5-7.5 7.5-4.2 0-7.6-3.4-7.6-7.5z"/><path id="path49" class="st2" d="M148.5 151.4c0-4.2 3.4-7.5 7.5-7.5 4.2 0 7.6 3.4 7.6 7.5 0 4.2-3.4 7.5-7.6 7.5-4.1 0-7.5-3.3-7.5-7.5z"/><path id="path51" class="st2" d="M137.2 175.1c0-4.2 3.4-7.5 7.6-7.5 4.2 0 7.5 3.4 7.5 7.5 0 4.2-3.4 7.6-7.5 7.6-4.2 0-7.6-3.4-7.6-7.6z"/><path id="path53" class="st2" d="M131 202.2c0-4.2 3.4-7.5 7.5-7.5s7.5 3.4 7.5 7.5c0 4.2-3.4 7.5-7.5 7.5s-7.5-3.4-7.5-7.5z"/><path id="path55" class="st2" d="M224.6 130.8c0-2 .8-3.9 2.2-5.3 1.4-1.4 3.3-2.2 5.3-2.2 4.2 0 7.5 3.4 7.5 7.5 0 4.2-3.4 7.5-7.5 7.5-4.1.1-7.5-3.3-7.5-7.5z"/><path id="path57" class="st2" d="M218.4 157.9c0-4.2 3.4-7.5 7.5-7.5 4.2 0 7.5 3.4 7.5 7.5 0 4.2-3.4 7.5-7.5 7.5-4.2 0-7.5-3.4-7.5-7.5z"/><path id="path59" class="st2" d="M344.2 175.5c0-7.5 6.1-13.6 13.6-13.6s13.6 6.1 13.6 13.6-6.1 13.6-13.6 13.6-13.6-6.1-13.6-13.6z"/><path id="path61" class="st2" d="M234.7 201.9c-3.1-1.8-5.3-4.8-6.2-8.3-1.9-7.2 2.5-14.7 9.8-16.5 7.2-1.9 14.7 2.5 16.5 9.8 1.9 7.2-2.5 14.6-9.8 16.5-3.5.8-7.1.3-10.3-1.5z"/><path id="path63" class="st2" d="M129.5 244c-3.6-6.6-1.2-14.8 5.3-18.4 3.2-1.8 6.9-2.2 10.3-1.1 3.5 1 6.4 3.3 8.1 6.5 3.6 6.5 1.2 14.8-5.3 18.4-6.5 3.6-14.7 1.2-18.4-5.4z"/><path id="path65" class="st2" d="M374.2 57.9c0-2 .8-3.9 2.2-5.3 1.4-1.4 3.3-2.2 5.3-2.2 4.2 0 7.6 3.4 7.6 7.5s-3.4 7.5-7.6 7.5c-4.1 0-7.5-3.4-7.5-7.5z"/><path id="path67" class="st2" d="M399 62.2c0-4.2 3.4-7.5 7.5-7.5 4.2 0 7.5 3.4 7.5 7.5 0 4.2-3.4 7.5-7.5 7.5-4.2 0-7.5-3.4-7.5-7.5z"/><path id="path69" class="st2" d="M423 71.1c0-4.2 3.4-7.5 7.5-7.5 4.2 0 7.5 3.4 7.5 7.5 0 4.2-3.4 7.5-7.5 7.5-4.1.1-7.5-3.3-7.5-7.5z"/><path id="path71" class="st2" d="M446.3 86.6c0-4.2 3.4-7.5 7.5-7.5 4.2 0 7.5 3.4 7.5 7.5 0 4.2-3.4 7.5-7.5 7.5-4.2 0-7.5-3.4-7.5-7.5z"/><path id="path73" class="st2" d="M464 107c0-4.2 3.4-7.5 7.5-7.5 2 0 3.9.8 5.3 2.2 1.4 1.4 2.2 3.3 2.2 5.3 0 4.2-3.4 7.5-7.5 7.5s-7.5-3.3-7.5-7.5z"/><path id="path75" class="st2" d="M488.2 105c0-4.2 3.4-7.5 7.6-7.5 4.2 0 7.5 3.4 7.5 7.5 0 4.2-3.4 7.6-7.5 7.6-4.2-.1-7.6-3.5-7.6-7.6z"/><path id="path77" class="st2" d="M511.9 114.3c0-4.2 3.4-7.5 7.5-7.5 4.2 0 7.6 3.4 7.6 7.5 0 4.2-3.4 7.5-7.6 7.5-4.1 0-7.5-3.4-7.5-7.5z"/><path id="path79" class="st2" d="M534 130.3c0-4.2 3.4-7.5 7.5-7.5 4.2 0 7.5 3.4 7.5 7.5 0 4.2-3.4 7.5-7.5 7.5s-7.5-3.4-7.5-7.5z"/><path id="path81" class="st2" d="M552 151.4c0-4.2 3.4-7.5 7.5-7.5 4.2 0 7.5 3.4 7.5 7.5 0 4.2-3.4 7.5-7.5 7.5-4.2 0-7.5-3.3-7.5-7.5z"/><path id="path83" class="st2" d="M563.3 175.1c0-4.2 3.4-7.5 7.5-7.5s7.5 3.4 7.5 7.5c0 4.2-3.4 7.6-7.5 7.6-4.2 0-7.5-3.4-7.5-7.6z"/><path id="path85" class="st2" d="M569.5 202.2c0-4.2 3.4-7.5 7.6-7.5 4.2 0 7.5 3.4 7.5 7.5 0 4.2-3.4 7.5-7.5 7.5-4.2 0-7.6-3.4-7.6-7.5z"/><path id="path87" class="st2" d="M475.9 130.8c0-4.2 3.4-7.5 7.5-7.5 4.2 0 7.5 3.4 7.5 7.5 0 4.2-3.4 7.5-7.5 7.5-4.1.1-7.5-3.3-7.5-7.5z"/><path id="path89" class="st2" d="M482.1 157.9c0-4.2 3.4-7.5 7.5-7.5 4.2 0 7.5 3.4 7.5 7.5 0 4.2-3.4 7.5-7.5 7.5s-7.5-3.4-7.5-7.5z"/><path id="path91" class="st2" d="M470.6 203.3c-3.5-.9-6.5-3.1-8.3-6.2-1.8-3.1-2.4-6.8-1.5-10.3.9-3.5 3.1-6.5 6.2-8.3 3.1-1.8 6.8-2.4 10.3-1.5 3.5.9 6.5 3.1 8.3 6.2 1.8 3.1 2.4 6.8 1.5 10.3-.9 3.5-3.1 6.5-6.2 8.3-3.2 1.9-6.8 2.4-10.3 1.5z"/><path id="path93" class="st2" d="M567.6 249.4c-3.2-1.8-5.5-4.6-6.5-8.1s-.6-7.1 1.2-10.3c1.7-3.2 4.6-5.5 8.1-6.5s7.2-.6 10.3 1.1c3.2 1.7 5.5 4.6 6.5 8.1s.6 7.2-1.1 10.3c-3.7 6.6-11.9 9-18.5 5.4z"/><path id="path95" class="st2" d="M301.7 257.7c0-2 .8-3.9 2.2-5.3 1.4-1.4 3.3-2.2 5.3-2.2 4.2 0 7.6 3.4 7.6 7.5s-3.4 7.5-7.6 7.5c-4.1.1-7.5-3.3-7.5-7.5z"/><path id="path97" class="st2" d="M208.1 283c0-2 .8-3.9 2.2-5.3 1.4-1.4 3.3-2.2 5.3-2.2 4.2 0 7.6 3.4 7.6 7.5 0 4.2-3.4 7.5-7.6 7.5-4.1.1-7.5-3.3-7.5-7.5z"/><path id="path99" class="st1" d="M357.8 246.3c.7.3 19.7 7.3 24.1 9-4.4 1.7-23.5 8.8-24.1 9-.7-.3-19.7-7.4-24.1-9 4.4-1.7 23.4-8.8 24.1-9z"/><path id="path101" class="st1" d="M189.6 284.4c1.7.6 8.7 3.2 10.2 3.7-.4 1.5-2.4 9.5-3 11.6-1.9-1-8.5-4.7-9.6-5.4.2-1.3 1.9-8.1 2.4-9.9z"/><path id="path103" class="st2" d="M398.8 257.7c0-4.2 3.4-7.5 7.5-7.5 4.2 0 7.6 3.4 7.6 7.5 0 4.2-3.4 7.5-7.6 7.5-4.1.1-7.5-3.3-7.5-7.5z"/><path id="path105" class="st2" d="M492.4 283c0-4.2 3.4-7.5 7.5-7.5 4.2 0 7.5 3.4 7.5 7.5 0 4.2-3.4 7.5-7.5 7.5-4.1.1-7.5-3.3-7.5-7.5z"/><path id="path107" class="st3" d="M528.9 277.6c-53.7-25.3-111.3-38.1-171.1-38.1s-117.4 12.8-171.1 38.1c-.4.2-.7.5-.9 1-.2.5-.1 1.2.2 1.8.2.5.7.9 1.2 1.1.5.2 1.1.2 1.6-.1.4-.2.9-.2 1.3-.1s.7.5.9.9l.1.3 10.3 3.8c.5.2.8.8.7 1.3l-3 11.9.3.7c.4.8 0 1.8-.8 2.2-1.3.6-1.9 2.2-1.3 3.6.6 1.2 1.9 2.1 3.3 1.5 49.1-23.2 102-34.9 157.1-34.9 55.1 0 108 11.8 157.1 34.9 1.4.7 2.8-.2 3.3-1.5.6-1.3 0-3-1.3-3.6-.8-.4-1.2-1.4-.8-2.2l.3-.7-3.1-11.9c-.1-.6.2-1.1.7-1.3l10.3-3.8.1-.3c.2-.4.5-.7.9-.9.4-.2.9-.1 1.3.1 1.1.5 2.3 0 2.9-1 .3-.6.3-1.3.1-1.8.1-.4-.2-.8-.6-1zm-313.2 15.2c-5.4 0-9.8-4.4-9.8-9.8 0-2.6 1-5.1 2.9-6.9 1.8-1.8 4.3-2.9 6.9-2.9 5.4 0 9.8 4.4 9.8 9.8s-4.5 9.8-9.8 9.8zm73.3-31.3-23.9 16.7c-.2.2-.5.2-.8.2l-29-3.1c-.5 0-.8-.4-1-.8-.1-.4.1-.9.4-1.2l23.9-16.7c.2-.2.5-.2.8-.2l29 3.1c.5 0 .8.4 1 .8.1.4 0 .9-.4 1.2zm20.2 6c-5.4 0-9.8-4.4-9.8-9.8 0-2.6 1-5.1 2.9-6.9 1.8-1.8 4.3-2.9 6.9-2.9 5.4 0 9.8 4.4 9.8 9.8s-4.4 9.8-9.8 9.8zm76.3-11.2-27.3 10.2c-.2.1-.5.1-.8 0l-27.3-10.2c-.4-.2-.7-.6-.7-1 0-.5.3-.9.7-1l27.3-10.2c.3-.1.5-.1.8 0l27.3 10.2c.4.2.7.6.7 1s-.3.9-.7 1zm20.8 11.2c-5.4 0-9.8-4.4-9.8-9.8s4.4-9.8 9.8-9.8 9.8 4.4 9.8 9.8-4.4 9.8-9.8 9.8zm74 7.8-29 3.1c-.3 0-.5 0-.8-.2l-23.9-16.7c-.4-.3-.6-.7-.4-1.2.1-.4.5-.8 1-.8l29-3.1c.3 0 .5 0 .8.2l23.9 16.7c.4.3.6.7.4 1.2-.2.4-.6.7-1 .8zm19.6 17.5c-5.4 0-9.8-4.4-9.8-9.8s4.4-9.8 9.8-9.8 9.8 4.4 9.8 9.8-4.4 9.8-9.8 9.8z"/><path id="path109" class="st3" d="M592.1 233.8c-.7-.6-.8-1.6-.2-2.3 2.8-3.6 3.9-7.8 3.2-11.9-.6-3.5-2.6-6.5-5.6-8.4-.8-.5-1-1.5-.5-2.2 1.2-2.1 1.9-4.4 1.9-6.9 0-6.4-4.6-12-10.8-13.4-.6-.1-1.1-.6-1.3-1.2-.1-.6.1-1.3.6-1.7 3.3-2.6 5.3-6.5 5.3-10.8 0-7.1-5.3-12.9-12.4-13.6-.6-.1-1.1-.4-1.3-.9-.3-.5-.2-1.1.1-1.6 1.5-2.2 2.3-4.9 2.3-7.6 0-7.5-6.1-13.7-13.7-13.7-1.2 0-2.4.2-3.6.5-.6.2-1.3 0-1.7-.5-.4-.5-.5-1.2-.2-1.8.8-1.8 1.2-3.7 1.2-5.7 0-7.5-6.1-13.7-13.7-13.7-2.2 0-4.3.5-6.2 1.5-.5.3-1.2.2-1.7-.1-.5-.3-.8-1-.7-1.6l.2-2.1c0-7.5-6.1-13.7-13.7-13.7-2.8 0-5.5.9-7.8 2.5-.5.3-1 .4-1.5.2s-.9-.6-1-1.2c-1.4-6.2-7-10.8-13.4-10.8-4.7 0-9 2.4-11.5 6.3-.3.4-.7.7-1.3.8-.5 0-1-.2-1.4-.5-2.6-2.8-6.3-4.5-10.1-4.5l-3.1.4c-.6.1-1.2-.2-1.6-.6-.4-.5-.5-1.1-.3-1.6.6-1.6.9-3.2.9-4.9 0-7.5-6.1-13.7-13.7-13.7-2.5 0-5 .7-7.2 2.1-.5.3-1.2.3-1.7-.1-.5-.3-.8-1-.8-1.6l.2-2.2c0-3.7-1.4-7.1-4-9.7-2.6-2.6-6-4-9.7-4-2.9 0-5.8.9-8.2 2.7-.4.3-1 .4-1.6.2-.5-.2-.9-.6-1-1.2-1.4-6.2-7-10.7-13.3-10.7-3.7 0-7.1 1.4-9.7 4-.4.4-.9.6-1.5.5-.5-.1-1-.4-1.2-.9-2.2-4.8-7.1-7.9-12.4-7.9-1.5 0-3 .3-4.4.7-.6.2-1.3 0-1.8-.5-2.5-2.9-5.8-5.2-9.4-6.5l-2.6-.8c-.7-.2-1.2-.9-1.2-1.6V23.8c0-.9.7-1.7 1.7-1.7h9.9v-8.4H364c-.9 0-1.7-.7-1.7-1.7V3.2h-9.1V12c0 .9-.7 1.7-1.7 1.7h-9.9v8.4h9.9c.9 0 1.7.7 1.7 1.7v11.7c0 .7-.6 1.4-1.2 1.6l-2.6.8c-3.6 1.4-6.9 3.6-9.4 6.5-.4.5-1.1.7-1.8.5-1.4-.5-2.9-.7-4.4-.7-5.3 0-10.1 3.1-12.4 7.9-.2.5-.7.8-1.2.9-.5.1-1.1-.1-1.5-.5-2.6-2.6-6-4-9.7-4-6.4 0-12 4.5-13.3 10.7-.1.5-.5 1-1 1.2-.5.2-1.1.1-1.6-.2-2.4-1.8-5.2-2.7-8.2-2.7-7.5 0-13.7 6.1-13.7 13.7l.2 2.2c.1.6-.2 1.3-.8 1.6-.5.3-1.2.4-1.7.1-2.2-1.4-4.7-2.1-7.2-2.1-7.5 0-13.7 6.1-13.7 13.7 0 1.7.3 3.3.9 4.9.2.5 0 1.1-.3 1.6-.4.5-1 .7-1.6.6l-3.1-.4c-3.8 0-7.5 1.6-10.1 4.5-.3.4-.8.6-1.4.5-.5 0-1-.3-1.3-.8-2.5-3.9-6.8-6.3-11.5-6.3-6.4 0-12 4.5-13.3 10.8-.1.5-.5 1-1 1.2-.5.2-1.1.1-1.5-.2-2.3-1.6-5-2.5-7.8-2.5-7.5 0-13.7 6.1-13.7 13.7l.2 2.1c.1.6-.2 1.2-.7 1.6s-1.1.4-1.7.2c-2-1-4.1-1.5-6.2-1.5-7.5 0-13.7 6.1-13.7 13.7 0 2 .4 3.9 1.2 5.7.3.6.2 1.3-.2 1.8s-1.1.7-1.7.5c-1.2-.3-2.4-.5-3.6-.5-7.5 0-13.7 6.1-13.7 13.7 0 2.7.8 5.3 2.3 7.6.3.5.4 1.1.1 1.6-.3.5-.8.9-1.3.9-7 .7-12.4 6.5-12.4 13.6 0 4.2 1.9 8.1 5.3 10.8.5.4.7 1 .6 1.7-.1.6-.6 1.1-1.3 1.2-6.3 1.3-10.8 6.9-10.8 13.4 0 2.4.6 4.8 1.8 6.9.4.8.2 1.7-.5 2.2-3 1.9-5 4.9-5.6 8.4-.7 4 .4 8.3 3.2 11.9.5.7.4 1.7-.2 2.3-2.2 1.9-3.3 4.3-3.3 7.3.1 5.3 3.8 10.9 7.4 13.7 4 3.1 12 7.5 20.3 1.9.6-.4 1.4-.4 1.9.1 6.7 5.2 15.5 6.8 23.6 4.3.6-.2 1.3 0 1.7.5.4.5.5 1.2.2 1.8-.9 1.9-.9 4.1 0 6 .8 1.8 2.2 3.1 4 3.7 1.6.6 3.4.5 5-.3 54.4-25.6 112.8-38.7 173.4-38.7 60.7 0 119.1 13 173.5 38.6 3.4 1.4 7.4-.1 8.9-3.5.9-1.9.9-4.1 0-6-.3-.6-.2-1.3.2-1.8s1.1-.7 1.7-.5c8.1 2.5 16.9.9 23.6-4.3.6-.4 1.3-.5 1.9-.1 8.3 5.6 16.3 1.2 20.3-1.9 3.6-2.8 7.3-8.4 7.4-13.7.3-3.1-.8-5.5-3-7.4zm-5.3-31.6c0 5.4-4.4 9.8-9.8 9.8s-9.8-4.4-9.8-9.8 4.4-9.8 9.8-9.8c5.5 0 9.8 4.4 9.8 9.8zm-16-36.8c5.4 0 9.8 4.4 9.8 9.8s-4.4 9.8-9.8 9.8-9.8-4.4-9.8-9.8c0-5.5 4.4-9.8 9.8-9.8zm-11.3-23.8c5.4 0 9.8 4.4 9.8 9.8s-4.4 9.8-9.8 9.8-9.8-4.4-9.8-9.8 4.4-9.8 9.8-9.8zm.8 88.3zm-18.7-109.4c5.4 0 9.8 4.4 9.8 9.8s-4.4 9.8-9.8 9.8-9.8-4.4-9.8-9.8 4.4-9.8 9.8-9.8zm-22.1-16c5.4 0 9.8 4.4 9.8 9.8s-4.4 9.8-9.8 9.8-9.8-4.4-9.8-9.8 4.4-9.8 9.8-9.8zm-23.8-9.3c5.4 0 9.8 4.4 9.8 9.8s-4.4 9.8-9.8 9.8-9.8-4.4-9.8-9.8c.1-5.4 4.5-9.8 9.8-9.8zM483.4 121c5.4 0 9.8 4.4 9.8 9.8s-4.4 9.8-9.8 9.8-9.8-4.4-9.8-9.8 4.4-9.8 9.8-9.8zm-17.5 55.6c3.6-2.1 7.9-2.8 12-1.7 4.1 1 7.5 3.6 9.7 7.3 2.1 3.6 2.7 7.9 1.7 12-1.1 4.1-3.6 7.5-7.3 9.7-3.6 2.1-7.9 2.7-12 1.7-4.1-1.1-7.5-3.6-9.7-7.3-1.5-2.5-2.2-5.2-2.2-8 0-1.3.2-2.7.5-4 1.1-4.1 3.7-7.6 7.3-9.7zm23.8-9c-5.4 0-9.8-4.4-9.8-9.8s4.4-9.8 9.8-9.8 9.8 4.4 9.8 9.8c0 5.5-4.4 9.8-9.8 9.8zm-18.2-70.4c2.6 0 5.1 1 6.9 2.9 1.8 1.8 2.9 4.3 2.9 6.9 0 5.4-4.4 9.8-9.8 9.8s-9.8-4.4-9.8-9.8c.1-5.4 4.4-9.8 9.8-9.8zm-17.7-20.4c5.4 0 9.8 4.4 9.8 9.8s-4.4 9.8-9.8 9.8-9.8-4.4-9.8-9.8 4.4-9.8 9.8-9.8zm-23.2-15.4c5.4 0 9.8 4.4 9.8 9.8S436 81 430.6 81s-9.8-4.4-9.8-9.8c0-5.5 4.4-9.8 9.8-9.8zm-24.1-9c5.4 0 9.8 4.4 9.8 9.8s-4.4 9.8-9.8 9.8-9.8-4.4-9.8-9.8 4.4-9.8 9.8-9.8zm-31.6-1.5c1.8-1.8 4.3-2.9 6.9-2.9 5.4 0 9.8 4.4 9.8 9.8s-4.4 9.8-9.8 9.8-9.7-4.4-9.7-9.8c-.1-2.6.9-5 2.8-6.9zm-17.1 20.7c5.4 0 9.8 4.4 9.8 9.8s-4.4 9.8-9.8 9.8-9.8-4.4-9.8-9.8 4.4-9.8 9.8-9.8zm-9.8 64.7c0-5.4 4.4-9.8 9.8-9.8s9.8 4.4 9.8 9.8-4.4 9.8-9.8 9.8c-5.4-.1-9.8-4.4-9.8-9.8zm25.6 39.2c0 8.7-7.1 15.8-15.8 15.8-8.7 0-15.8-7.1-15.8-15.8 0-8.7 7.1-15.8 15.8-15.8 8.7 0 15.8 7.1 15.8 15.8zm-15.8-56.9c-5.4 0-9.8-4.4-9.8-9.8s4.4-9.8 9.8-9.8 9.8 4.4 9.8 9.8-4.4 9.8-9.8 9.8zm-24-70.5c5.4 0 9.8 4.4 9.8 9.8s-4.4 9.8-9.8 9.8-9.8-4.4-9.8-9.8 4.4-9.8 9.8-9.8zm-31.6 7.2c1.8-1.8 4.3-2.9 6.9-2.9 5.4 0 9.8 4.4 9.8 9.8s-4.4 9.8-9.8 9.8-9.8-4.4-9.8-9.8c0-2.6 1.1-5.1 2.9-6.9zM285 61.4c5.4 0 9.8 4.4 9.8 9.8S290.4 81 285 81s-9.8-4.4-9.8-9.8c0-5.5 4.4-9.8 9.8-9.8zm-23.2 15.4c2.6 0 5.1 1 6.9 2.9 1.8 1.8 2.9 4.3 2.9 6.9 0 5.4-4.4 9.8-9.8 9.8S252 92 252 86.6s4.4-9.8 9.8-9.8zm-17.7 20.4c5.4 0 9.8 4.4 9.8 9.8s-4.4 9.8-9.8 9.8-9.8-4.4-9.8-9.8 4.4-9.8 9.8-9.8zm-6.4 77.7c8.4-2.2 17.1 2.9 19.2 11.4 2.2 8.4-2.9 17-11.4 19.2-4.1 1.1-8.3.5-12-1.7-3.6-2.1-6.2-5.6-7.3-9.7-2-8.4 3.1-17 11.5-19.2zm-21.6-17c0-5.4 4.4-9.8 9.8-9.8s9.8 4.4 9.8 9.8-4.4 9.8-9.8 9.8c-5.4-.1-9.8-4.4-9.8-9.8zm16.1-36.9c5.4 0 9.8 4.4 9.8 9.8s-4.4 9.8-9.8 9.8-9.8-4.4-9.8-9.8c0-2.6 1-5.1 2.9-6.9 1.8-1.8 4.3-2.9 6.9-2.9zm-12.3-25.8c2.6 0 5.1 1 6.9 2.9 1.8 1.8 2.9 4.3 2.9 6.9 0 5.4-4.4 9.8-9.8 9.8s-9.8-4.4-9.8-9.8 4.4-9.8 9.8-9.8zm-23.8 9.3c5.4 0 9.8 4.4 9.8 9.8s-4.4 9.8-9.8 9.8-9.8-4.4-9.8-9.8 4.4-9.8 9.8-9.8zm-22.1 16c5.4 0 9.8 4.4 9.8 9.8s-4.4 9.8-9.8 9.8-9.8-4.4-9.8-9.8c.1-5.4 4.5-9.8 9.8-9.8zm-17.9 21.1c5.4 0 9.8 4.4 9.8 9.8s-4.4 9.8-9.8 9.8-9.8-4.4-9.8-9.8 4.4-9.8 9.8-9.8zm-.8 88.3zM135 175.1c0-5.4 4.4-9.8 9.8-9.8s9.8 4.4 9.8 9.8-4.4 9.8-9.8 9.8-9.8-4.4-9.8-9.8zm3.5 17.3c5.4 0 9.8 4.4 9.8 9.8s-4.4 9.8-9.8 9.8-9.8-4.4-9.8-9.8c.1-5.4 4.4-9.8 9.8-9.8zm10.6 58.9c-7.6 4.2-17.2 1.4-21.5-6.2-4.2-7.6-1.4-17.2 6.2-21.5 3.7-2 8-2.5 12-1.3s7.4 3.9 9.4 7.6c1.3 2.4 2 5 2 7.6 0 5.5-2.9 10.9-8.1 13.8zm68.7-7.2c-10.3 3.6-20.6 7.7-30.6 12.2-.7.3-1.6.1-2-.6-.5-.6-.4-1.5.1-2.1 3.7-3.9 6.2-9 7.2-14.1.1-.7.7-1.2 1.4-1.3l1.8-.3c1.7-.4 3.4-1.2 4.8-2.3.6-.4 1.4-.4 2 0 4.2 3.1 9.5 5 14.9 5.4.8.1 1.4.6 1.5 1.4 0 .7-.4 1.4-1.1 1.7zm6-13.1c-6.6 1.7-13.4-.7-17.5-6.2-.2-.2-.3-.7-.3-.9l-.4-2.8c-1.9-7.3-9.4-11.8-16.7-9.9-3.6.9-6.6 3.2-8.4 6.3-1.9 3.2-2.4 6.9-1.5 10.4.5 2.1 1.6 4 3 5.7.2.3.4.6.4.9.6 6.7-2.7 13-8.6 16.3-4.2 2.3-9.3 2.7-13.8 1-.6-.2-1-.8-1.1-1.5 0-.7.3-1.3.9-1.6 8.7-4.3 11-10.5 7.4-19.8-2.3-6-5.3-9.6-9.1-10.7-.7-.2-1.2-.9-1.2-1.7 3.6-46.5 18-68.1 59.2-88.9.5-.3 1.2-.3 1.7 0s.8.8.8 1.4l-.1 1.6c0 4.2 1.9 8.1 5.3 10.8.5.4.7 1.1.6 1.7-.1.6-.6 1.1-1.3 1.2-6.3 1.3-10.9 6.9-10.9 13.4 0 6 4 11.4 9.8 13.1.5.1.9.5 1 .9.2.5.2 1 0 1.4-1.1 2.2-1.6 4.9-1.4 7.9 0 .7-.3 1.3-.9 1.6-7.3 3.5-9.5 9-7.2 17.9 2.7 10.7 9.1 14.1 20.7 11.2.5-.1 1 0 1.4.3.4.3.6.7.7 1.2.7 8.3-4.5 15.8-12.5 17.8zm43.8-1.1c-10 2.2-19.9 4.7-29.5 7.5-.7.2-1.5-.1-1.9-.8-.4-.7-.2-1.5.4-2 6.6-5.6 9.9-14.1 9-22.6-.1-.8.4-1.6 1.2-1.8.8-.2 1.6.2 1.9 1 3.3 8 10.4 13.8 18.8 15.5.8.2 1.3.8 1.3 1.6.1.8-.5 1.5-1.2 1.6zm53.8-8.1c-10.9.9-22 2.3-32.9 4.1-.8.1-1.5-.3-1.8-1-.3-.7 0-1.6.7-2 5.4-3.4 9.4-8.5 11.5-14.3.2-.7.9-1.1 1.6-1.1h.8c1.4 0 2.7-.2 4-.6.7-.2 1.4.1 1.8.7 3.5 5.1 8.7 9 14.8 11 .7.2 1.2 1 1.1 1.8-.2.7-.8 1.4-1.6 1.4zm-7.1-23.1c-.1-.3-.1-.6 0-1 .4-1.3.6-2.6.6-3.9 0-3.7-1.4-7.1-4-9.7-2.6-2.6-6.1-4-9.7-4-7.6 0-13.8 6.2-13.8 13.8 0 2.4.6 4.8 1.9 6.9.2.3.2.6.2.9-.2 7.5-5.3 13.9-12.5 15.8-8 2.1-16.1-1.9-19.4-9.4-.2-.4-.2-.9 0-1.4.2-.4.6-.8 1.1-.9 11.6-3.1 15.5-9.2 12.8-19.8-2.3-8.9-6.9-12.6-15-12.2-.7 0-1.3-.3-1.6-1-1.8-3.8-4.2-6.2-7.3-7.5-.7-.3-1.1-1-1-1.7 4.7-45.6 39.9-89.6 98.1-85.3.9.1 1.6.9 1.5 1.8l-.1 1.4c0 2.4.7 4.7 2 6.6.2.3.3.6.3.9v12.3c0 .3-.1.7-.3.9-1.3 2-2 4.3-2 6.6 0 2.4.7 4.7 2 6.6.2.3.3.6.3.9v12.3c0 .3-.1.7-.3.9-1.3 2-2 4.2-2 6.6 0 4.6 2.7 8.9 7 10.7.7.3 1.1 1 1 1.7-.1.7-.6 1.3-1.4 1.4-6.9 1.1-10.7 4.9-12 11.7-.1.7-.6 1.2-1.3 1.3-7.9 1.6-11.5 6.3-11.5 15.5 0 11 5.3 15.9 17.3 16 .5 0 .9.2 1.3.6s.4.9.4 1.3c-1.3 8.1-8.3 14-16.5 14-7.4.3-14-4.6-16.1-11.6zm60.6 20.6c-.2.8-.9 1.3-1.7 1.3l-15.4-.3-15.4.3c-.8 0-1.5-.5-1.7-1.3-.2-.8.2-1.5.9-1.9 7.9-3.8 13.3-11.2 14.6-19.8.1-.8.8-1.4 1.6-1.4s1.5.6 1.6 1.4c1.2 8.6 6.7 16 14.6 19.8.7.3 1.1 1.1.9 1.9zm54 5.6c-.3.7-1 1.2-1.8 1-10.9-1.8-22-3.2-32.9-4.1-.8-.1-1.4-.7-1.5-1.5-.1-.8.4-1.5 1.1-1.8 6.1-2 11.3-5.9 14.8-11 .4-.6 1.2-.9 1.8-.7 1.3.4 2.6.6 4 .6h.8c.7 0 1.3.4 1.6 1.1 2.1 5.8 6.2 10.9 11.5 14.3.6.5.9 1.4.6 2.1zm9.7-7.6c-7.2-1.9-12.4-8.3-12.5-15.8 0-.3.1-.6.2-.9 1.2-2.1 1.8-4.4 1.8-6.9 0-7.6-6.2-13.8-13.7-13.8-7.6 0-13.8 6.2-13.8 13.8 0 1.3.2 2.7.6 3.9.1.3.1.7 0 1-2.2 7.1-8.6 11.9-16 11.9-8.2 0-15.1-5.9-16.5-14-.1-.5.1-1 .4-1.3.3-.4.8-.6 1.2-.6 12-.1 17.3-5 17.3-16 0-9.2-3.5-13.9-11.5-15.5-.7-.1-1.2-.7-1.3-1.3-1.3-6.8-5.1-10.5-12-11.7-.7-.1-1.3-.7-1.4-1.4s.3-1.4 1-1.7c4.3-1.9 7-6.1 7-10.7 0-2.4-.7-4.7-2-6.6-.2-.3-.3-.6-.3-.9v-12.3c0-.3.1-.7.3-.9 1.3-2 2-4.2 2-6.6 0-2.4-.7-4.7-2-6.6-.2-.3-.3-.6-.3-.9V88.9c0-.3.1-.7.3-.9 1.3-2 2-4.2 2-6.6l-.1-1.3c-.1-.9.6-1.8 1.5-1.9 58.3-4.3 93.5 39.7 98.1 85.3.1.7-.4 1.4-1 1.7-3.2 1.2-5.6 3.7-7.3 7.5-.3.6-.9 1-1.6 1-8.1-.5-12.7 3.3-15 12.1-2.7 10.6 1.2 16.8 12.8 19.8.5.1.9.4 1.1.9.2.4.2.9 0 1.4-3.1 7.5-11.3 11.5-19.3 9.4zm40.8 19.4c-.4.7-1.2 1-1.9.8-9.6-2.8-19.5-5.4-29.5-7.5-.8-.2-1.3-.8-1.3-1.6s.6-1.5 1.3-1.6c8.5-1.7 15.5-7.5 18.8-15.5.3-.8 1.1-1.2 1.9-1 .8.2 1.3 1 1.2 1.8-.9 8.6 2.4 17 9 22.6.7.5.9 1.3.5 2zm51.1 19c-.5.6-1.3.9-2 .6-10-4.4-20.4-8.5-30.6-12.2-.7-.3-1.2-1-1.1-1.8.1-.8.7-1.4 1.5-1.4 5.4-.4 10.6-2.2 14.9-5.4.6-.4 1.4-.4 2 0 1.4 1.1 3.1 1.9 4.8 2.3l1.8.3c.7.1 1.3.7 1.4 1.3 1 5.2 3.5 10.2 7.2 14.1.5.7.5 1.5.1 2.2zm27-37.4c-3.8 1.1-6.8 4.8-9.1 10.7-3.5 9.3-1.2 15.5 7.5 19.8.6.3.9.9.9 1.6 0 .7-.5 1.2-1.1 1.5-4.6 1.7-9.6 1.3-13.8-1-5.9-3.2-9.2-9.6-8.6-16.3 0-.3.2-.7.4-.9 1.5-1.6 2.5-3.6 3-5.7.9-3.5.4-7.2-1.5-10.4s-4.9-5.4-8.4-6.3c-7.3-1.9-14.8 2.5-16.7 9.9l-.4 2.9c0 .3-.2.7-.3.9-4.1 5.4-11 7.8-17.5 6.2-8-2-13.2-9.5-12.5-17.7 0-.5.3-.9.7-1.2.4-.3.9-.4 1.4-.3 11.6 2.9 18-.6 20.8-11.2 2.3-8.9 0-14.4-7.2-17.9-.6-.3-1-.9-.9-1.6.2-3.1-.2-5.7-1.4-7.9-.2-.4-.2-1 0-1.4.2-.5.6-.8 1-.9 5.8-1.7 9.8-7.1 9.8-13.1 0-6.4-4.6-12.1-10.9-13.4-.6-.1-1.1-.6-1.3-1.2-.1-.6.1-1.3.6-1.7 3.3-2.6 5.3-6.5 5.3-10.8l-.1-1.6c0-.6.3-1.1.8-1.5.5-.3 1.2-.3 1.7-.1 41.2 20.8 55.6 42.4 59.2 88.9-.2.8-.7 1.5-1.4 1.7zm30.5 26.8c-4.2 7.6-13.8 10.4-21.5 6.2-3.7-2-6.4-5.4-7.6-9.5-.4-1.4-.6-2.9-.6-4.4 0-2.6.7-5.2 2-7.6 2-3.7 5.4-6.4 9.4-7.6 4.1-1.2 8.3-.7 12 1.3 3.7 2 6.4 5.4 7.6 9.4 1.2 4.2.7 8.5-1.3 12.2z"/><path id="path111" class="st1" d="M526 284.4c.4 1.8 2.1 8.7 2.4 9.9-1.1.6-7.8 4.3-9.6 5.4-.5-2.1-2.6-10.1-3-11.6 1.5-.5 8.5-3.1 10.2-3.7z"/><path id="path113" class="st0" d="M0 642.4C0 839.6 160.5 1000 357.8 1000s357.8-160.4 357.8-357.6c0-197.4-160.5-358-357.8-358S0 445 0 642.4z"/><path id="path115" class="st3" d="M10.1 642.4c0 95.8 39 182.6 101.9 245.6 63 62.9 149.8 101.9 245.7 101.9 95.8 0 182.7-39 245.7-101.9 63-62.9 101.9-149.8 101.9-245.6 0-95.9-39-182.8-101.9-245.8-63-63-149.9-102-245.7-102-95.9 0-182.7 39-245.7 102-62.9 63-101.9 149.9-101.9 245.8z"/><path id="path117" class="st0" d="M40.6 642.2C40.6 467.3 182.9 325 357.8 325 532.7 325 675 467.3 675 642.2c0 174.9-142.3 317.2-317.2 317.2-174.9 0-317.2-142.3-317.2-317.2z"/><path id="path119" class="st2" d="M50.8 642.2c0-169.3 137.7-307 307-307s307 137.7 307 307-137.7 307-307 307-307-137.7-307-307z"/><path id="path121" class="st0" d="M652.1 641.1c0-107.1-58.5-206.1-152.7-258.3l-2-1.1s-66.8 69.5-68.5 71.2h-.3l-1.1 1.1c-21.9-8.1-45.3-12.5-69.6-12.8-24.8 0-50.5 4.6-72.7 12.8-2.4-2.6-68.5-71.6-68.5-71.6l-2 1.1-2.1 1.2-.1-.1C159 415 115.8 461.7 89.8 517.8c0 .1.1.1.2.2-17.6 38-27.2 79.9-27.2 123.1 0 70.4 25.3 136.1 73.1 189.9l2.1 2.3 39.1-40-2.2-2c-21.2-20.1-60.2-76.1-60.2-146.9 0-1.9 0-3.9.1-5.9 1-28.4 6-55.1 15-79.8 10.9 11.2 21.9 22.3 32.7 33.4-3.4 13.6-5.3 27.4-5.5 41.4v2.5c0 89.6 62 170 148.6 192.6V879H360v-44.1c12.2-.3 24.4-1.7 36.5-4.3 26.1 26.7 52.4 53.5 78.9 80.6 55.8-24.4 102.6-65.6 134-117.2 27.7-45.8 42.7-98.6 42.7-152.9zM305.6 768c-55.7-20.2-91.4-68.2-92.6-124.5 31 31.5 61.8 63 92.6 94.5v30zm51.8-239.5c-3.3-3.4-23.7-24.2-29.3-30 10-1.9 20.2-3 27-2.7 10.7.3 20.5 1.6 29.7 3.7-5.2 5.5-24.2 25.6-27.4 29zM567 750.3 393 570.9c20.9-22.1 43.6-46.1 45.4-48 18.3 12.9 33.1 29.7 42.9 49l1.7 3.3 43.7-37.8-1.3-2.1C513.5 515.4 497 497 477.6 482c3.6-3.7 26-26.6 28.9-29.6 45.1 32.4 90 105.8 90 186 .1 47-10.7 80.9-29.5 111.9z"/><path id="path123" class="st3" d="M499.3 394.4c-12.1 12.5-64.8 67.3-64.8 67.3l-1.3 1.3h-.5l-.7.7-2 2-2.6-1-1.8-.7c-21.3-8.1-44.2-12.5-67.9-12.8-23.8 0-49.9 4.7-70.9 12.8l-4.5 1.7-2-2.1s-53.4-55.8-65.6-68.5C127 446.4 72.8 540.1 72.8 641c0 65.4 22.6 126.4 65.5 177.3 6.2-6.3 18.5-18.9 24.4-24.9-23.1-24.7-58.2-79.8-58.2-149.1 0-2 0-4.1.1-6.2 2.7-78.9 35.5-144.9 97-195.2l5.1-4.2 43.6 45.1-6.5 4.9c-47.4 35.7-76 90-76.7 144.8v2.4c0 85.7 59.9 162.7 143.1 183.4l5.5 1.4v48.1h34.1v-44h7.2c52.9-.3 106.5-24.8 141-64.1-6.2-6.3-20.1-20.3-26.7-27-33.3 35.9-79.4 54.3-110.9 54.4-1.3 0-2.6 0-3.8-.1l-6.8-.4v-52h59.5v-29.5h-59.5V664H410v-25.3h-94.3v143.4l-9.5-3.2c-62.9-20.9-103.5-75.2-103.5-138.6v-3c1.1-50.9 25.5-96.7 66.7-125.5l5-3.5 2.5 2.6s64.8 66.8 80.2 82.8c15-15.9 77.2-81.6 77.2-81.6l2.5-2.7 5.1 3.5c18 12.2 33 28.1 43.8 46.3 7.3-6.3 21.3-18.4 27.6-23.8-11.5-17.7-26.7-34.1-44.5-47.4l-6.6-4.9 43-44 5 3.5c48.3 33.5 96.2 110.8 96.3 195.8.1 67.6-23 111.5-57.4 153.7l28.4 28.4c41.4-50.5 64.1-113.9 64.1-179.5.3-101.5-54.2-195.5-142.3-246.6zM360.6 539.9l-3.1 3.2-49.5-50.6 12.6-2.9c11.3-2.5 22.9-4 31.8-4 1 0 2.1 0 3 .1 13.3.4 25.4 2.1 36.9 5.2L404 494l-43.4 45.9z"/></svg>